<?xml version="1.0" encoding="utf-8"?><svg xmlns="http://www.w3.org/2000/svg" xmlns:xlink="http://www.w3.org/1999/xlink"><symbol viewBox="0 0 512 512" id="design" xmlns="http://www.w3.org/2000/svg"><path d="M432 100c-5.52 0-10 4.48-10 10s4.48 10 10 10 10-4.48 10-10-4.48-10-10-10zm-352 0c-5.52 0-10 4.48-10 10s4.48 10 10 10 10-4.48 10-10-4.48-10-10-10zm422 120h-11.96c-3.738-28.804-12.77-56.253-26.944-81.705-2.687-4.824-8.776-6.559-13.602-3.872-4.825 2.687-6.559 8.777-3.872 13.602 12.508 22.463 20.646 46.628 24.252 71.975H462c-5.523 0-10 4.477-10 10v40c0 5.523 4.477 10 10 10h40c5.523 0 10-4.477 10-10v-40c0-5.523-4.477-10-10-10zm-10 40h-20v-20h20v20zm-126.019 32.621c-.006-.155-.01-.31-.023-.465a10 10 0 0 0-.078-.629c-.019-.128-.034-.256-.059-.384a10.286 10.286 0 0 0-.169-.724c-.024-.091-.043-.182-.07-.272a9.83 9.83 0 0 0-.309-.879c-.013-.031-.022-.064-.035-.095a9.871 9.871 0 0 0-.465-.973l-99.998-182.996a10 10 0 0 0-17.55.001l-99.998 182.996a9.871 9.871 0 0 0-.465.973c-.013.031-.022.063-.035.095a9.83 9.83 0 0 0-.309.879c-.027.09-.046.181-.07.272a9.64 9.64 0 0 0-.169.724c-.024.127-.039.255-.059.384a10 10 0 0 0-.078.629c-.013.155-.018.31-.023.465-.005.126-.019.25-.019.378 0 .066.009.129.01.195.003.157.013.313.024.47.013.199.029.397.054.593a11.771 11.771 0 0 0 .192 1.054 10.123 10.123 0 0 0 .305 1.029c.022.063.036.127.06.19l36.064 95.569a30.095 30.095 0 0 0-7.92 5.689C169.121 403.457 166 410.99 166 419c0 13.036 8.361 24.152 20 28.28V502c0 5.523 4.477 10 10 10h120c5.523 0 10-4.477 10-10v-54.703a29.905 29.905 0 0 0 11.212-7.086C342.879 434.543 346 427.01 346 419c0-11.773-6.819-21.978-16.713-26.887l36.069-95.582c.024-.063.038-.127.06-.19a10.123 10.123 0 0 0 .305-1.029c.05-.211.092-.425.129-.641.023-.138.046-.275.063-.413.025-.196.041-.394.054-.593.01-.157.021-.313.024-.47.001-.065.01-.129.01-.195-.001-.128-.015-.252-.02-.379zM256 283c5.514 0 10 4.486 10 10s-4.486 10-10 10-10-4.486-10-10 4.486-10 10-10zm50 209H206v-43h100v43zm17.069-65.932A9.93 9.93 0 0 1 316 429H196c-5.514 0-10-4.486-10-10a9.93 9.93 0 0 1 2.931-7.068A9.933 9.933 0 0 1 196 409h119.933l.066.003.034-.001c5.499.018 9.968 4.495 9.968 9.998a9.935 9.935 0 0 1-2.932 7.068zM309.085 389h-106.17l-32.453-86H196c5.523 0 10-4.477 10-10s-4.477-10-10-10h-23.14L246 149.154V264.72c-11.639 4.128-20 15.243-20 28.28 0 16.542 13.458 30 30 30s30-13.458 30-30c0-13.036-8.361-24.152-20-28.28V149.154L339.14 283H316c-5.523 0-10 4.477-10 10s4.477 10 10 10h25.538l-32.453 86zM62.505 134.423c-4.826-2.688-10.916-.954-13.602 3.872C34.73 163.747 25.697 191.196 21.96 220H10c-5.523 0-10 4.477-10 10v40c0 5.523 4.477 10 10 10h40c5.523 0 10-4.477 10-10v-40c0-5.523-4.477-10-10-10h-7.875c3.607-25.347 11.744-49.512 24.252-71.975 2.687-4.825.954-10.915-3.872-13.602zM40 260H20v-20h20v20zM482 0c-13.036 0-24.152 8.361-28.28 20H286V10c0-5.523-4.477-10-10-10h-40c-5.523 0-10 4.477-10 10v10H58.28C54.152 8.361 43.036 0 30 0 13.458 0 0 13.458 0 30s13.458 30 30 30c13.036 0 24.152-8.361 28.28-20h100.534c-21.329 8.925-40.889 20.511-56.989 34.084-4.223 3.56-4.76 9.869-1.2 14.091a9.977 9.977 0 0 0 7.65 3.555 9.956 9.956 0 0 0 6.44-2.354C143.407 65.188 184.353 47.913 226 42.119V50c0 5.523 4.477 10 10 10h40c5.523 0 10-4.477 10-10v-7.881c41.647 5.794 82.593 23.069 111.285 47.256a9.95 9.95 0 0 0 6.44 2.354 9.973 9.973 0 0 0 7.65-3.555c3.561-4.221 3.023-10.53-1.2-14.09-16.1-13.573-35.66-25.159-56.989-34.084H453.72c4.128 11.639 15.243 20 28.28 20 16.542 0 30-13.458 30-30S498.542 0 482 0zM30 40c-5.514 0-10-4.486-10-10s4.486-10 10-10 10 4.486 10 10-4.486 10-10 10zm236-10v10h-20V20h20v10zm216 10c-5.514 0-10-4.486-10-10s4.486-10 10-10 10 4.486 10 10-4.486 10-10 10z"/></symbol><symbol viewBox="0 0 512.001 512.001" id="development" xmlns="http://www.w3.org/2000/svg"><path d="M37.07 309.64c-1.859-1.86-4.439-2.93-7.069-2.93s-5.21 1.07-7.07 2.93-2.93 4.43-2.93 7.07c0 2.63 1.069 5.21 2.93 7.07 1.86 1.859 4.44 2.93 7.07 2.93s5.21-1.07 7.069-2.93c1.86-1.87 2.931-4.44 2.931-7.07s-1.07-5.21-2.931-7.07zM57.072 76.928l-20-20c-3.906-3.904-10.236-3.904-14.143 0l-20 20c-3.905 3.905-3.905 10.237 0 14.143 3.906 3.904 10.236 3.904 14.143 0l2.929-2.928v188.245c0 5.522 4.478 10 10 10s10-4.478 10-10V88.143l2.929 2.929C44.883 93.023 47.442 94 50.001 94s5.118-.977 7.071-2.929c3.905-3.905 3.905-10.237 0-14.143zm452.001 344.001l-20-20c-3.906-3.904-10.236-3.904-14.143 0-3.905 3.905-3.905 10.237 0 14.143l2.929 2.929h-35.888V277.667c0-5.522-4.478-10-10-10s-10 4.478-10 10V418H313.606v-64c0-5.522-4.478-10-10-10s-10 4.478-10 10v64h-83.13V257.525c0-5.522-4.478-10-10-10s-10 4.478-10 10V418h-80.29v-62.5c0-5.522-4.478-10-10-10s-10 4.478-10 10V418H40.001v-57.555c0-5.522-4.478-10-10-10s-10 4.478-10 10V428c0 5.522 4.478 10 10 10h447.857l-2.929 2.929c-3.905 3.905-3.905 10.237 0 14.143 1.953 1.952 4.512 2.929 7.071 2.929s5.118-.977 7.071-2.929l20-20c3.907-3.906 3.907-10.238.002-14.143z"/><path d="M431.969 131.476c-19.91 0-36.107 16.197-36.107 36.107 0 5.71 1.338 11.113 3.708 15.918l-78.304 78.304a35.875 35.875 0 0 0-17.662-4.632c-6.27 0-12.17 1.609-17.314 4.431l-52.962-52.962a35.88 35.88 0 0 0 3.253-14.951c0-19.91-16.197-36.108-36.107-36.108s-36.108 16.198-36.108 36.108a35.872 35.872 0 0 0 4.264 17.001l-51.027 51.027a35.882 35.882 0 0 0-17.419-4.492c-19.91 0-36.107 16.197-36.107 36.107s16.199 36.107 36.109 36.107 36.108-16.197 36.108-36.107a35.878 35.878 0 0 0-4.532-17.488l50.816-50.816a35.873 35.873 0 0 0 17.897 4.768 35.887 35.887 0 0 0 19.794-5.931l51.82 51.82a35.87 35.87 0 0 0-4.592 17.593c0 19.91 16.197 36.108 36.107 36.108s36.107-16.198 36.107-36.108a35.883 35.883 0 0 0-4.392-17.244l77.721-77.721a35.883 35.883 0 0 0 18.929 5.376c19.91 0 36.107-16.198 36.107-36.108 0-19.91-16.197-36.107-36.107-36.107zM100.187 309.442c-8.881 0-16.107-7.226-16.107-16.107s7.224-16.108 16.106-16.108c4.351 0 8.298 1.741 11.2 4.555.049.051.092.107.142.157.059.059.124.109.185.167 2.83 2.904 4.582 6.863 4.582 11.229 0 8.882-7.227 16.107-16.108 16.107zm100.289-99.645c-8.881 0-16.108-7.226-16.108-16.107s7.226-16.108 16.108-16.108c8.882 0 16.107 7.227 16.107 16.108s-7.226 16.107-16.107 16.107zm103.13 99.59c-8.881 0-16.107-7.227-16.107-16.108s7.226-16.107 16.107-16.107 16.107 7.225 16.107 16.107-7.226 16.108-16.107 16.108zM431.971 183.69c-8.881 0-16.107-7.227-16.107-16.108s7.225-16.107 16.107-16.107 16.107 7.226 16.107 16.107-7.226 16.108-16.107 16.108z"/><path d="M439.041 228.93c-1.86-1.86-4.44-2.93-7.07-2.93s-5.21 1.069-7.07 2.93c-1.859 1.86-2.93 4.44-2.93 7.07s1.07 5.21 2.93 7.069c1.86 1.86 4.44 2.931 7.07 2.931s5.21-1.07 7.07-2.931c1.859-1.859 2.93-4.439 2.93-7.069s-1.07-5.21-2.93-7.07z"/></symbol><symbol viewBox="0 -14 512 512" id="marketing" xmlns="http://www.w3.org/2000/svg"><path d="M136.965 308.234c4.781-2.757 6.418-8.879 3.66-13.66-2.762-4.777-8.879-6.418-13.66-3.66-4.781 2.762-6.422 8.883-3.66 13.66 2.757 4.781 8.879 6.422 13.66 3.66zm0 0"/><path d="M95.984 377.254l50.36 87.23c10.867 18.844 35.312 25.82 54.644 14.645 19.13-11.055 25.703-35.496 14.637-54.64l-30-51.97 25.98-15c4.782-2.765 6.422-8.878 3.66-13.66l-13.003-22.523c1.55-.3 11.746-2.3 191.539-37.57 22.226-1.207 35.543-25.516 24.316-44.95l-33.234-57.562 21.238-32.168a10.004 10.004 0 0 0 .317-10.512l-20-34.64a10.02 10.02 0 0 0-9.262-4.98l-38.473 2.308-36.894-63.907c-5.344-9.257-14.918-14.863-25.606-14.996-.129-.004-.254-.004-.383-.004-10.328 0-19.703 5.141-25.257 13.832L119.93 202.602l-84.926 49.03C1.602 270.91-9.97 313.763 9.383 347.255c17.68 30.625 54.953 42.672 86.601 30zm102.325 57.238c5.523 9.555 2.254 21.781-7.329 27.317-9.613 5.558-21.855 2.144-27.316-7.32l-50-86.614 34.64-20c57.868 100.242 49.075 85.012 50.005 86.617zm-22.684-79.297l-10-17.32 17.32-10 10 17.32zm196.582-235.91l13.82 23.938-12.324 18.664-23.82-41.262zM267.289 47.152c2.684-4.39 6.941-4.843 8.668-4.797 1.707.02 5.961.551 8.527 4.997l116.313 201.464c3.789 6.559-.817 14.805-8.414 14.993-1.363.03-1.992.277-5.485.93L263.863 51.632c2.582-3.32 2.914-3.64 3.426-4.48zm-16.734 21.434l115.597 200.223-174.46 34.218-53.047-91.879zM26.703 337.254a49.933 49.933 0 0 1-6.71-24.95c0-17.835 9.585-34.445 25.01-43.35l77.942-45 50 86.6-77.941 45.005c-23.879 13.78-54.516 5.57-68.3-18.305zm0 0"/><path d="M105.984 314.574c-2.761-4.781-8.879-6.422-13.66-3.66l-17.32 10c-4.774 2.758-10.902 1.113-13.66-3.66-2.762-4.781-8.88-6.422-13.66-3.66s-6.422 8.879-3.66 13.66c8.23 14.258 26.59 19.285 40.98 10.98l17.32-10c4.781-2.761 6.422-8.875 3.66-13.66zM497.137 43.746l-55.723 31.008c-4.824 2.687-6.562 8.777-3.875 13.601 2.68 4.82 8.766 6.567 13.602 3.875l55.718-31.007c4.829-2.688 6.563-8.778 3.875-13.602-2.683-4.828-8.773-6.562-13.597-3.875zm-5.844 103.57l-38.637-10.351c-5.336-1.43-10.82 1.734-12.25 7.07-1.43 5.336 1.739 10.817 7.074 12.246l38.641 10.352c5.367 1.441 10.824-1.774 12.246-7.07 1.43-5.336-1.738-10.82-7.074-12.247zM394.2 7.414l-10.364 38.64c-1.43 5.337 1.734 10.817 7.07 12.25 5.332 1.426 10.817-1.73 12.25-7.07l10.36-38.64c1.43-5.336-1.735-10.82-7.07-12.25-5.333-1.43-10.817 1.734-12.247 7.07zm0 0"/></symbol></svg>