<?xml version="1.0" encoding="utf-8"?><svg xmlns="http://www.w3.org/2000/svg" xmlns:xlink="http://www.w3.org/1999/xlink"><symbol viewBox="0 0 512 512" id="css-3" xmlns="http://www.w3.org/2000/svg"><path d="M32 0l40.8 460.8L256 512l183.136-51.168L480 0H32zm360.768 150.688l-5.152 57.888-15.52 173.568L256 414.208l-.064.032-116-32.128-8.128-90.752h56.832l4.224 47.104 63.072 17.024.064-.064 63.136-17.024 8.608-78.432-198.656.544-5.632-53.664 209.056-2.432 4.224-57.44-218.88.608-3.68-53.376h283.648l-5.056 56.48z"/></symbol><symbol viewBox="0 0 299.215 299.215" id="html5" xmlns="http://www.w3.org/2000/svg"><path d="M22.347 0c-2.75 0-4.799 2.241-4.555 4.98l23.184 260.047c.244 2.739 2.611 5.582 5.262 6.318l98.381 27.316c2.65.736 6.986.736 9.637.002l98.68-27.361c2.65-.735 5.02-3.578 5.264-6.316L281.422 4.98c.246-2.739-1.805-4.98-4.555-4.98H22.347zm209.702 59.641l-.842 9.423-.611 6.823c-.246 2.738-.596 6.654-.781 8.701-.184 2.048-.359 3.723-.391 3.723H107.759c-2.75 0-4.799 2.241-4.555 4.98l2.143 23.955c.244 2.738 2.695 4.98 5.445 4.98h111.212c2.449 0 4.273 1.999 4.051 4.442a5396.99 5396.99 0 0 0-.848 9.423l-6.891 77.228c-.246 2.739-.557 6.238-.691 7.776-.137 1.537-2.416 3.396-5.066 4.131l-58.133 16.119c-2.65.734-4.852 1.342-4.893 1.351-.041.009-2.242-.586-4.893-1.321l-58.195-16.148c-2.65-.735-5.018-3.578-5.262-6.317l-3.746-42.045c-.244-2.739 1.807-4.98 4.557-4.98h23.231c2.75 0 5.199 2.241 5.445 4.98l1.469 16.459c.244 2.739 2.615 5.566 5.271 6.283l27.221 7.351c2.654.717 4.836 1.304 4.848 1.304s2.193-.588 4.848-1.305l27.27-7.369c2.654-.717 5.027-3.545 5.273-6.283l2.957-32.976c.246-2.739-1.803-4.98-4.553-4.98H80.511c-2.75 0-5.199-2.242-5.443-4.98l-7.256-81.306-.842-9.423c-.217-2.443 1.854-4.442 4.604-4.442h155.872c2.749 0 4.821 1.999 4.603 4.443z"/></symbol><symbol viewBox="0 0 312.553 312.553" id="js-file" xmlns="http://www.w3.org/2000/svg"><path d="M302.553 0H10C4.477 0 0 4.478 0 10v292.553c0 5.522 4.477 10 10 10h292.553c5.523 0 10-4.478 10-10V10c0-5.522-4.477-10-10-10zM143.625 173.732c0 18.615-10.434 30.179-27.232 30.179-10.55 0-19.978-5.292-26.547-14.901a9.325 9.325 0 0 1 15.395-10.523c3.074 4.498 6.826 6.778 11.152 6.778 3.419 0 8.586 0 8.586-11.532v-47.467H99.504a9.323 9.323 0 0 1-9.323-9.323 9.323 9.323 0 0 1 9.323-9.323h34.798a9.323 9.323 0 0 1 9.323 9.323v56.789zm45.816 31.868c-12.499 0-25.251-5.27-33.279-13.753a9.324 9.324 0 0 1 13.543-12.819c4.486 4.74 12.417 7.925 19.736 7.925 7.493 0 16.244-2.188 16.244-8.351.048-5.81-3.045-7.986-17.415-12.339-12.677-3.839-31.835-9.642-31.835-31.725 0-16.5 14.306-27.586 35.599-27.586 9.479 0 19.815 2.874 26.975 7.502 4.324 2.795 5.564 8.567 2.769 12.892-2.796 4.324-8.568 5.564-12.892 2.769-4.112-2.658-11.042-4.516-16.852-4.516-7.82 0-16.952 2.342-16.952 8.939 0 7.165 4.189 9.516 18.594 13.879 12.277 3.718 30.83 9.337 30.656 30.262-.001 16.071-14.022 26.921-34.891 26.921z"/></symbol><symbol viewBox="0 0 16.172 16.172" id="php" xmlns="http://www.w3.org/2000/svg"><path d="M13.043 6.367c-.237 0-.398.022-.483.047v1.523c.101.022.223.03.391.03.621 0 1.004-.313 1.004-.842-.001-.474-.33-.758-.912-.758z"/><path d="M15.14 0H1.033C.463 0 0 .462 0 1.032V15.14c0 .568.462 1.031 1.033 1.031H15.14c.57 0 1.032-.463 1.032-1.031V1.032C16.172.462 15.71 0 15.14 0zM4.904 8.32c-.398.375-.988.543-1.677.543-.153 0-.291-.008-.398-.023v1.846H1.673V5.594c.36-.061.865-.107 1.578-.107.719 0 1.233.139 1.577.414.33.261.552.689.552 1.194s-.169.934-.476 1.225zm5.478 2.366H9.218v-2.16H7.297v2.16H6.125v-5.16h1.172v1.983h1.921V5.526h1.164v5.16zm4.253-2.366c-.397.375-.987.543-1.677.543-.152 0-.291-.008-.398-.023v1.846h-1.155V5.594c.359-.061.864-.107 1.577-.107.72 0 1.232.139 1.577.414.33.261.552.689.552 1.194-.001.505-.169.934-.476 1.225z"/><path d="M3.312 6.367a1.88 1.88 0 0 0-.483.047v1.523c.1.022.222.03.391.03.62 0 1.003-.313 1.003-.842 0-.474-.329-.758-.911-.758z"/></symbol><symbol viewBox="0 0 300 300" id="wordpress" xmlns="http://www.w3.org/2000/svg"><path d="M.005 149.995c0 59.367 34.502 110.683 84.543 134.992L12.994 88.953A149.46 149.46 0 0 0 .005 149.995zm251.254-7.566c0-18.544-6.661-31.377-12.367-41.366-7.602-12.362-14.729-22.817-14.729-35.18 0-13.788 10.449-26.621 25.184-26.621.668 0 1.301.081 1.943.122C224.608 14.932 189.049 0 150 0 97.597 0 51.497 26.89 24.674 67.603c3.525.116 6.843.188 9.655.188 15.685 0 39.98-1.907 39.98-1.907 8.083-.476 9.033 11.406.956 12.362 0 0-8.129.951-17.163 1.422l54.619 162.478 32.827-98.447-23.368-64.032c-8.083-.471-15.73-1.422-15.73-1.422-8.083-.48-7.138-12.838.95-12.362 0 0 24.766 1.907 39.505 1.907 15.686 0 39.98-1.907 39.98-1.907 8.083-.476 9.039 11.406.956 12.362 0 0-8.138.951-17.162 1.422l54.203 161.238 14.962-49.984c7.606-19.494 11.415-35.655 11.415-48.492zm-98.623 20.687L107.628 293.89A149.988 149.988 0 0 0 150 300c17.471 0 34.224-3.015 49.813-8.503a14.133 14.133 0 0 1-1.072-2.068l-46.105-126.313zm128.988-85.078c.647 4.774 1.012 9.898 1.012 15.422 0 15.215-2.854 32.326-11.412 53.723l-45.812 132.459c44.598-26 74.583-74.311 74.583-129.646 0-26.081-6.667-50.598-18.371-71.958z"/></symbol></svg>